<svg width="100" height="100" xmlns="http://www.w3.org/2000/svg" version="1.1" xml:space="preserve">
 <g>
  <title>Layer 1</title>
  <path class="st0" d="m117.2,87.1c-0.6,1.6 -1.8,4.5 -4.3,7.5c-3.6,4.1 -9.2,7.7 -17.3,7.7c-13.3,0 -23.4,-9.7 -23.4,-26.5c0,-17 11,-26.2 23.8,-26.2c15.6,0 19.3,12 20.4,15.5l-9.4,2.5c-0.1,-0.9 -0.6,-3.1 -1.8,-5c-1.1,-1.6 -3.8,-4.4 -9,-4.4c-8.2,0 -13.8,6.7 -13.8,17.5c0,11.4 6,17.8 13.9,17.8c4.7,0 7.5,-2.3 9.6,-4.9c1.6,-2.2 2.3,-4 2.6,-5.2l8.7,3.7zm13.6,-36.2l0,50.1l-8.6,0l0,-50.1l8.6,0zm7.3,25.1c0.1,-1.8 0.3,-3.3 1.4,-5.3c3.4,-6.2 11.9,-6.2 14.1,-6.2c3.4,0 7.5,0.4 10.7,2.3c4.2,2.6 4.3,5.9 4.3,9.7l0,18.8c0,2.7 0,3.6 1.6,5.8l-10.2,0c-0.1,-0.9 -0.2,-2.3 -0.2,-2.8c-1.8,1.6 -5.6,3.6 -10.5,3.6c-8,0 -12.9,-5 -12.9,-11.1c0,-1.8 0.4,-3.4 1.1,-4.8c2.6,-5.1 8,-6.2 11.4,-6.9c7.3,-1.5 7.9,-1.6 11,-2.6c0,-1.8 -0.1,-5.4 -6,-5.4c-3.6,0 -5.5,1.1 -6.3,2.3c-0.9,1.1 -0.9,2.1 -0.9,3.1l-8.6,-0.5zm21.9,7.4c-1.7,0.9 -3.6,1.5 -7.5,2.1c-3.1,0.4 -7.1,1.1 -7.1,4.9c0,2.8 2.3,4.2 5.8,4.2c4.3,0 7.4,-2 8.3,-4.1c0.5,-1.1 0.5,-2.1 0.5,-3.2l0,-3.9zm23.8,-17.8l0,5c1.1,-1.8 3.4,-6 11.4,-5.8l0,8.7c-1.8,0.1 -5,0.1 -7.7,2.1c-3.6,2.8 -3.7,6.4 -3.7,12.3l0,13.1l-8.2,0l0,-35.4l8.2,0zm24.7,-14.2l0,8.6l-8.5,0l0,-8.6l8.5,0zm0,14.2l0,35.5l-8.5,0l0,-35.5l8.5,0zm37.2,0l-11.7,35.5l-9.2,0l-11.5,-35.5l8.8,0l7.4,24.4l7.2,-24.4l9,0zm2.1,10.4c0.1,-1.8 0.3,-3.3 1.4,-5.3c3.4,-6.2 11.9,-6.2 14.1,-6.2c3.4,0 7.5,0.4 10.7,2.3c4.2,2.6 4.3,5.9 4.3,9.7l0,18.8c0,2.7 0,3.6 1.6,5.8l-10.1,0c-0.1,-0.9 -0.2,-2.3 -0.2,-2.8c-1.8,1.6 -5.6,3.6 -10.5,3.6c-8,0 -12.9,-5 -12.9,-11.1c0,-1.8 0.4,-3.4 1.1,-4.8c2.6,-5.1 8,-6.2 11.4,-6.9c7.3,-1.5 7.9,-1.6 11,-2.6c0,-1.8 -0.1,-5.4 -6,-5.4c-3.6,0 -5.5,1.1 -6.3,2.3c-0.9,1.1 -0.9,2.1 -0.9,3.1l-8.7,-0.5zm21.9,7.4c-1.7,0.9 -3.6,1.5 -7.5,2.1c-3.1,0.4 -7.1,1.1 -7.1,4.9c0,2.8 2.3,4.2 5.8,4.2c4.3,0 7.4,-2 8.3,-4.1c0.5,-1.1 0.5,-2.1 0.5,-3.2l0,-3.9zm26.4,-11.7l0,16c0,4.4 0,6.3 4,6.3c1.3,0 2.3,-0.1 3.6,-0.4l0,7.2c-2.6,0.4 -4.3,0.6 -6.2,0.6c-1.8,0 -7.7,0 -9.4,-4.3c-0.6,-1.4 -0.6,-3.7 -0.6,-7.2l0,-18.2l-5.2,0l0,-6.1l5.2,0l0,-12.6l8.5,0l0,12.6l7.6,0l0,6.1l-7.5,0zm45.5,21.4c-4.4,5.9 -10.1,9 -17.3,9c-9.3,0 -18.2,-5.9 -18.2,-19c0,-11.9 7.7,-18.7 17.7,-18.7c9.4,0 13.3,5.6 14,6.7c2.9,4.1 3.6,10.3 3.6,13.8l-26.4,0c1,5.6 4.5,8.8 10.1,8.8c5.8,0 8.2,-3.4 9.2,-4.9l7.3,4.3zm-9.7,-14.3c-0.8,-5.5 -4.2,-7.5 -8,-7.5c-4.5,0 -7.7,2.6 -8.7,7.5l16.7,0zm-235.2,64.4l-13.8,0l-2.1,7.2l-7.4,0l12.4,-36.9l7.8,0l12.6,36.9l-7.4,0l-2.1,-7.2zm-1.8,-6l-5.1,-17l-5.1,17l10.2,0zm14.6,-12.9l6.3,0l0,3.1c0.3,-0.5 0.9,-1.3 2,-2c1.6,-1.1 4,-1.8 6,-1.8c3,0 5.5,1.4 6.8,3.1c1.6,2.2 1.6,5 1.6,8.4l0,15.4l-6.2,0l0,-13.3c0,-1.9 0,-3.2 -0.2,-4c-0.6,-2.3 -2.2,-3.5 -4.3,-3.5c-2,0 -3.9,1.2 -4.8,2.9c-1,1.9 -1,4.6 -1,6.5l0,11.3l-6.3,0l0,-26.1l0.1,0zm28.1,7.7c0.1,-1.3 0.2,-2.4 1,-3.9c2.5,-4.5 8.7,-4.5 10.4,-4.5c2.5,0 5.5,0.3 7.8,1.7c3.1,1.9 3.1,4.3 3.1,7.2l0,13.8c0,2 0,2.7 1.1,4.2l-7.4,0c-0.1,-0.6 -0.2,-1.7 -0.2,-2c-1.4,1.1 -4.1,2.7 -7.7,2.7c-5.9,0 -9.5,-3.7 -9.5,-8.2c0,-1.3 0.3,-2.5 0.8,-3.6c1.9,-3.8 5.9,-4.6 8.4,-5.1c5.4,-1.1 5.8,-1.2 8.1,-1.9c0,-1.3 -0.1,-4 -4.4,-4c-2.6,0 -4,0.8 -4.6,1.7c-0.7,0.8 -0.6,1.6 -0.6,2.3l-6.3,-0.4zm16.2,5.4c-1.3,0.6 -2.7,1.1 -5.5,1.6c-2.2,0.3 -5.2,0.8 -5.2,3.6c0,2 1.7,3.1 4.2,3.1c3.2,0 5.4,-1.5 6.1,-3c0.4,-0.8 0.4,-1.6 0.4,-2.4l0,-2.9zm16.7,-23.8l0,36.9l-6.3,0l0,-36.9l6.3,0zm26.3,10.7l-6.6,22.8l-1.5,4.9c-1.8,5.5 -3.7,7.4 -8.6,7.4c-2,0 -3,-0.2 -3.8,-0.3l0,-5.5c0.6,0.1 1,0.2 1.7,0.2c0.5,0 1.8,0 2.8,-0.7c0.7,-0.5 1.5,-1.6 1.5,-2.1l-9.5,-26.6l6.7,0l5.8,19.5l5,-19.5l6.5,0l0,-0.1zm11.3,4.5l0,11.8c0,3.2 0,4.7 3,4.7c0.9,0 1.7,-0.1 2.6,-0.3l0,5.3c-1.9,0.3 -3.1,0.4 -4.5,0.4c-1.3,0 -5.7,0 -6.9,-3.2c-0.4,-1 -0.4,-2.7 -0.4,-5.3l0,-13.3l-3.9,0l0,-4.5l3.8,0l0,-9.2l6.3,0l0,9.2l5.6,0l0,4.5l-5.6,0l0,-0.1zm15.2,-14.9l0,6.3l-6.2,0l0,-6.3l6.2,0zm0,10.4l0,26.1l-6.2,0l0,-26.1l6.2,0zm22,9.3c-0.5,-1.7 -2.3,-4.4 -5.9,-4.4c-3.6,0 -6.5,2.9 -6.5,8.1c0,4.7 2.5,8.2 6.6,8.2c4,0 5.5,-3 6.3,-5.1l5.4,2.8c-2,5.6 -7.2,8.2 -11.8,8.2c-7.3,0 -13,-5.6 -13,-13.8c0,-8 5.7,-13.8 13.2,-13.8c6.6,0 9.9,4.4 11.3,7.4l-5.6,2.4zm11.3,9.1c1.6,1.9 3.9,3.3 7.5,3.3c3.6,0 5.2,-1.8 5.2,-3.1c0,-1.7 -1.9,-2.1 -2.7,-2.2c-0.9,-0.2 -5.2,-1 -6.1,-1.3c-6.2,-1.5 -7.4,-5.1 -7.4,-7.4c0,-4.4 4,-8.5 11.2,-8.5c4,0 6.8,1.3 8.6,2.5c1.3,0.8 2.1,1.7 2.7,2.4l-4.4,4.1c-0.7,-1.4 -2.5,-4 -7.1,-4c-3,0 -4.3,1.3 -4.3,2.7c0,1.9 1.9,2.4 5.3,3c5.4,1 6.9,1.3 8.6,2.6c1.6,1.3 2.7,3.3 2.7,5.5c0,4.1 -3.7,8.9 -11.8,8.9c-4.7,0 -9.2,-1.5 -12.5,-4.6l4.5,-3.9z" display="none" fill="#B2B2B2" id="svg_1"/>
  <g stroke="null" id="svg_2">
   <rect stroke="null" y="-44" class="st1" width="258.49999" height="253.84699" fill="none" id="svg_3" x="-40.5"/>
   <g stroke="null" id="svg_4">
    <g stroke="null" id="svg_5">
     <path stroke="null" class="st2" d="m83.19225,50.8695c4.9115,5.9455 8.91825,12.53725 11.891,19.51675c-13.1835,13.7005 -30.11525,23.65275 -49.115,28.30575c-4.653,-6.204 -8.272,-12.925 -10.857,-20.163c26.884,-4.3945 41.877,-20.4215 48.081,-27.6595z" fill="#1AC604" id="svg_6"/>
     <path stroke="null" class="st3" d="m46.356,3.17625c-4.653,6.204 -8.40125,12.925 -11.1155,20.03375c22.36025,4.00675 37.4825,15.38075 47.95175,27.78875c4.9115,-5.9455 8.91825,-12.53725 11.891,-19.51675c-13.05425,-13.7005 -29.85675,-23.65275 -48.72725,-28.30575z" fill="#6817FF" id="svg_7"/>
     <path stroke="null" d="m12.234,79.17525c-5.17,-18.3535 -5.29925,-37.35325 0.12925,-56.6115c5.04075,-0.517 12.925,-1.16325 22.87725,0.517c-7.36725,19.77525 -6.07475,39.42125 -0.2585,55.44825c-7.4965,1.42175 -15.63925,1.551 -22.748,0.64625z" id="svg_8"/>
    </g>
   </g>
  </g>
 </g>

</svg>